<?xml version="1.0" encoding="UTF-8"?>
<svg width="170px" height="46px" viewBox="0 0 170 46" version="1.1" xmlns="http://www.w3.org/2000/svg" xmlns:xlink="http://www.w3.org/1999/xlink">
    <title>0E599E01-485A-41C3-9E2A-C38880D5A9EE</title>
    <g id="Page-1" stroke="none" stroke-width="1" fill="none" fill-rule="evenodd">
        <g id="Home-Concept-v1.0-b" transform="translate(-199.000000, -155.000000)">
            <g id="Logo-Option-B" transform="translate(199.000000, 155.000000)">
                <g id="Mark">
                    <g id="M" fill="#FFFFFF">
                        <g id="Group-7">
                            <rect id="Rectangle" opacity="0.2" x="-8.43769499e-15" y="5.77315973e-15" width="4" height="4"></rect>
                            <rect id="Rectangle" x="0" y="14" width="4" height="4"></rect>
                            <rect id="Rectangle" x="0" y="28" width="4" height="4"></rect>
                            <rect id="Rectangle" opacity="0.2" x="0" y="42" width="4" height="4"></rect>
                        </g>
                        <g id="Group-8" transform="translate(13.347826, 0.000000)">
                            <rect id="Rectangle" x="0.652173913" y="14" width="4" height="4"></rect>
                            <rect id="Rectangle" x="0.652173913" y="0" width="4" height="4"></rect>
                            <rect id="Rectangle" x="0.652173913" y="28" width="4" height="4"></rect>
                            <rect id="Rectangle" x="0.652173913" y="42" width="4" height="4"></rect>
                        </g>
                        <g id="Group-7" transform="translate(28.000000, 0.000000)">
                            <rect id="Rectangle" x="-8.43769499e-15" y="5.77315973e-15" width="4" height="4"></rect>
                            <rect id="Rectangle" x="-4.4408921e-16" y="14" width="4" height="4"></rect>
                            <rect id="Rectangle" x="4.4408921e-16" y="28" width="4" height="4"></rect>
                            <rect id="Rectangle" x="4.4408921e-16" y="42" width="4" height="4"></rect>
                        </g>
                        <g id="Group-7" transform="translate(42.000000, 0.000000)">
                            <rect id="Rectangle" opacity="0.2" x="-8.43769499e-15" y="5.77315973e-15" width="4" height="4"></rect>
                            <rect id="Rectangle" x="-4.4408921e-16" y="14" width="4" height="4"></rect>
                            <rect id="Rectangle" x="4.4408921e-16" y="28" width="4" height="4"></rect>
                            <rect id="Rectangle" opacity="0.2" x="4.4408921e-16" y="42" width="4" height="4"></rect>
                        </g>
                    </g>
                    <g id="Connections" transform="translate(0.000000, 1.000000)" stroke="#FFFFFF" stroke-linecap="square">
                        <line x1="16.5" y1="43.5" x2="1.5" y2="28.5" id="Line-4" opacity="0.2"></line>
                        <line x1="44.5" y1="43.5" x2="29.5" y2="28.5" id="Line-4" opacity="0.2" transform="translate(37.000000, 36.000000) scale(-1, 1) translate(-37.000000, -36.000000) "></line>
                        <line x1="44.5" y1="15.5" x2="29.5" y2="0.5" id="Line-4" opacity="0.2" transform="translate(37.000000, 8.000000) scale(-1, -1) translate(-37.000000, -8.000000) "></line>
                        <line x1="16.5" y1="15.5" x2="1.5" y2="0.5" id="Line-4" opacity="0.2" transform="translate(9.000000, 8.000000) scale(1, -1) translate(-9.000000, -8.000000) "></line>
                        <line x1="2" y1="15.5" x2="2" y2="29.5" id="Line-5" opacity="0.2"></line>
                        <line x1="44" y1="15.5" x2="44" y2="29.5" id="Line-5" opacity="0.2"></line>
                        <line x1="16.5" y1="1" x2="29.5" y2="1" id="Line-6" opacity="0.2"></line>
                        <line x1="16.5" y1="43" x2="29.5" y2="43" id="Line-6" opacity="0.2"></line>
                        <line x1="16" y1="0.5" x2="16" y2="43.5" id="Line-7" opacity="0.2"></line>
                        <line x1="30" y1="0.5" x2="30" y2="43.5" id="Line-7" opacity="0.2"></line>
                        <line x1="43.5" y1="15" x2="0.5" y2="15" id="Line-7" opacity="0.2"></line>
                        <line x1="43.5" y1="29" x2="0.5" y2="29" id="Line-7" opacity="0.2"></line>
                        <g id="M" transform="translate(14.500000, 14.076457)">
                            <line x1="1.5" y1="15.4235429" x2="1.5" y2="1.4235429" id="Line-8"></line>
                            <line x1="2.5" y1="14.9235429" x2="16.5" y2="14.9235429" id="Line-8" opacity="0.2"></line>
                            <line x1="15.5" y1="15.4235429" x2="15.5" y2="1.4235429" id="Line-8"></line>
                            <line x1="8" y1="7.4235429" x2="15.6640783" y2="1" id="Line-8" transform="translate(11.832039, 4.211771) rotate(-8.000000) translate(-11.832039, -4.211771) "></line>
                            <line x1="1.21156602" y1="7.4235429" x2="8.87564435" y2="1" id="Line-8" transform="translate(5.043605, 4.211771) scale(-1, 1) rotate(-7.000000) translate(-5.043605, -4.211771) "></line>
                        </g>
                    </g>
                </g>
                <text id="ML@CL" font-family="SpaceGrotesk-Bold, Space Grotesk" font-size="28" font-weight="bold" fill="#FFFFFF">
                    <tspan x="68" y="33">ML@CL</tspan>
                </text>
            </g>
        </g>
    </g>
</svg>